<svg width="64" height="64" viewBox="0 0 64 64" fill="none" xmlns="http://www.w3.org/2000/svg">
<path d="M54 0H10C4.47715 0 0 4.47715 0 10V54C0 59.5228 4.47715 64 10 64H54C59.5228 64 64 59.5228 64 54V10C64 4.47715 59.5228 0 54 0Z" fill="#D70926"/>
<path d="M46.1449 41.3706V40.7301C46.1449 40.1345 46.2123 39.6063 46.3359 39.1624C46.4651 38.7128 46.6674 38.3026 46.9372 37.943C47.2012 37.5834 47.544 37.2575 47.943 36.9653C48.3363 36.6787 48.8083 36.3922 49.3421 36.1C49.6231 35.9483 49.8647 35.7966 50.0614 35.6392C50.2524 35.4875 50.4098 35.3302 50.5334 35.1728C50.6514 35.0155 50.7413 34.8582 50.7919 34.6952C50.8481 34.5323 50.8705 34.3581 50.8705 34.1783C50.8705 33.976 50.8312 33.7906 50.7525 33.6276C50.6739 33.459 50.5615 33.3129 50.4154 33.1893C50.2693 33.0657 50.0951 32.9702 49.8872 32.8971C49.6793 32.8297 49.4433 32.7904 49.1848 32.7904C48.9432 32.7904 48.7128 32.8128 48.4993 32.8578C48.2801 32.9028 48.0722 32.9589 47.8699 33.032C47.6676 33.105 47.471 33.1893 47.2855 33.2792C47.0945 33.3691 46.9091 33.4703 46.7236 33.5714L46.5607 33.6613L46.0381 32.4926L46.1561 32.4139C46.3078 32.3071 46.4989 32.2004 46.718 32.0824C46.9371 31.97 47.19 31.8632 47.4541 31.7677C47.7238 31.6722 48.016 31.5935 48.3195 31.5317C48.6285 31.4699 48.9488 31.4362 49.2803 31.4362C49.7636 31.4362 50.2075 31.498 50.6064 31.6216C51.011 31.7452 51.3594 31.9307 51.646 32.1667C51.9382 32.4027 52.1629 32.6949 52.3259 33.0376C52.4832 33.3804 52.5619 33.7625 52.5619 34.1839C52.5619 34.5716 52.4945 34.92 52.354 35.229C52.2191 35.5268 52.0337 35.8022 51.8033 36.0494C51.5785 36.291 51.3088 36.5102 51.011 36.7068C50.7188 36.8979 50.4098 37.0889 50.0895 37.2687C49.7692 37.4598 49.4658 37.6508 49.1904 37.8475C48.9207 38.0329 48.6847 38.2465 48.488 38.4712C48.2914 38.6904 48.134 38.9432 48.0216 39.2129C47.9261 39.4377 47.8643 39.6962 47.8362 39.9884H52.5563V41.3538H46.128L46.1449 41.3706Z" fill="white"/>
<path d="M58.063 37.9824V33.8524L55.3602 37.9824H58.063ZM58.063 41.3707V39.3478H53.416V38.3533L57.8663 31.5936H59.7656V37.9824H61.1254V39.3478H59.7656V41.3707H58.0686H58.063Z" fill="white"/>
<path d="M37.7611 41.3707L44.1219 29.1942H37.0025L38.042 27.2051H47.8306L40.4639 41.3707H37.7611Z" fill="white"/>
<path d="M33.041 42.0562C33.0485 41.8764 33.0691 41.7546 33.1028 41.6909C33.1703 41.5505 33.3332 41.3369 33.6254 41.3369H36.8845L37.9634 39.3197H33.2208C32.5522 39.3197 31.9509 39.2242 31.4059 39.0219C30.8664 38.8252 30.3776 38.5499 29.9898 38.1285C29.6021 37.707 29.2987 37.1789 29.0852 36.5439C28.8716 35.909 28.7649 35.1448 28.7649 34.2626C28.7649 33.3804 28.8716 32.6274 29.0852 31.9925C29.2987 31.3575 29.5965 30.8294 29.9898 30.4192C30.3776 30.009 30.8439 29.7055 31.3834 29.5089C31.9228 29.3122 32.5297 29.2167 33.1984 29.2167H36.1147L37.1599 27.2388H32.9006C31.8385 27.2388 30.8777 27.4074 30.0348 27.7389C29.9449 27.7726 29.8662 27.8176 29.7819 27.8513C29.3099 28.0198 29.0402 27.8681 28.8435 27.7052C28.6637 27.5591 28.3491 27.1208 28.2198 26.9354C28.1074 26.7836 27.7928 26.306 27.7928 26.306L26.9555 24.9912C26.9555 24.9912 24.8259 21.6759 24.809 21.6366C24.6236 21.2826 24.5168 21.0916 24.5 20.8949C24.4887 20.7881 24.5337 20.5802 24.5618 20.4791C24.6123 20.3218 24.7472 20.1026 24.9045 19.9003C25.4215 19.1642 25.6856 18.254 25.562 17.2987C25.2979 15.2365 23.3761 13.7756 21.2633 14.0284C19.1505 14.2869 17.6502 16.1637 17.9143 18.2259C18.1784 20.288 20.1002 21.749 22.213 21.4961C22.3085 21.4849 22.404 21.468 22.4995 21.4456C22.4995 21.4456 22.5333 21.4456 22.5557 21.4343C22.6063 21.4231 22.6513 21.4119 22.6962 21.4006C22.9378 21.3444 23.0446 21.3332 23.1738 21.3332C23.2694 21.3332 23.4941 21.3725 23.5784 21.4119C23.7751 21.5074 23.8762 21.749 24.0617 22.0524C24.219 22.3109 24.2415 22.2716 26.2475 25.4688L27.0229 26.7499C27.0229 26.7499 27.3432 27.3062 27.4444 27.4973C27.5455 27.6883 27.7253 28.076 27.7928 28.2783C27.8995 28.5817 28.0737 28.9695 27.6579 29.4021H27.6691C27.1915 29.964 26.8094 30.6102 26.5341 31.3575C26.2194 32.2229 26.0621 33.1837 26.0621 34.2513C26.0621 34.6728 26.0958 35.0717 26.1464 35.4594H26.1407C26.1407 35.5212 26.1183 35.8584 26.0452 36.0045C25.9834 36.1337 25.8317 36.263 25.7137 36.3416C25.5507 36.454 25.0843 36.617 24.8989 36.69C22.9659 37.443 17.1501 39.4827 17.0827 39.5108C17.004 39.5445 14.9755 40.2918 14.2619 40.5278C14.1158 40.5784 13.8292 40.6795 13.6775 40.7076C13.5651 40.7301 13.3516 40.7694 13.2336 40.7638C13.0313 40.7582 12.8852 40.7076 12.5649 40.3255C11.6434 38.9882 10.0813 38.106 8.30562 38.106C5.47357 38.106 3.18097 40.3424 3.18097 43.1069C3.18097 45.8715 5.47357 48.1079 8.30562 48.1079C11.1377 48.1079 13.4303 45.8659 13.4303 43.1069C13.4303 42.9047 13.4134 42.708 13.3909 42.5113C13.3347 42.1236 13.4584 41.955 13.5988 41.8089C13.6831 41.7247 13.8461 41.6123 13.9528 41.5561C14.0821 41.4887 14.4024 41.3819 14.5372 41.3313C15.2452 41.056 17.3131 40.3368 17.403 40.2974C17.4704 40.2693 23.1682 38.1566 25.1181 37.5216C25.3091 37.4598 25.6463 37.3418 25.8485 37.3025C25.9665 37.28 26.2812 37.2688 26.3936 37.3025C26.5509 37.353 26.7195 37.5385 26.8094 37.7295C27.1409 38.3982 27.5905 39.0388 28.0737 39.5164C28.6918 40.1345 29.4448 40.6121 30.3214 40.9548C30.7653 41.1234 31.2092 41.2133 31.6868 41.2639C31.906 41.2864 32.1083 41.4718 32.2094 41.6628C32.2656 41.7752 32.2544 41.8932 32.26 42.0168C32.26 42.1292 32.2487 42.4158 32.2487 42.5226C32.2487 42.6462 32.2487 42.8147 32.2319 43.0114C32.2263 43.0901 32.1813 43.2699 32.1363 43.3317C32.0408 43.4553 31.788 43.6351 31.6025 43.6969C30.4731 44.1184 29.6696 45.1804 29.6696 46.4334C29.6696 48.0461 31.0125 49.3553 32.6645 49.3553C34.3166 49.3553 35.6595 48.0461 35.6595 46.4334C35.6595 45.1354 34.7942 44.0341 33.5917 43.6576C33.3613 43.5958 33.1927 43.4328 33.1366 43.3261C33.0972 43.2474 33.0635 43.1463 33.0579 43.062C33.041 42.899 33.041 42.6293 33.0466 42.4945C33.0466 42.3821 33.0635 42.1573 33.0691 42.0449" fill="white"/>
</svg>
